PathFileType	4	(X/Y/Z)	C:/Users/opensim2020/Desktop/walking_exp_matlab/subject01_walking09_straight_03.trc	
DataRate	CameraRate	NumFrames	NumMarkers	Units	OrigDataRate	OrigDataStartFrame	OrigNumFrames	
100.00	100.00	8	43	mm	100.00	3018	348	
Frame#	Time	LFHD			RFHD			LBHD			RBHD			C7			T10			CLAV			STRN			RBAK			LSHO			LUPA			LELB			LFRM			LWRA			LWRB			LFIN			RSHO			RUPA			RELB			RFRM			RWRA			RWRB			RFIN			LASI			RASI			LPSI			RPSI			LTHI			LKNE			LTIB			LANK			LHEE			LTOE			RTHI			RKNE			RTIB			RANK			RHEE			RTOE			*39			*40			*41			*42			
		X1	Y1	Z1	X2	Y2	Z2	X3	Y3	Z3	X4	Y4	Z4	X5	Y5	Z5	X6	Y6	Z6	X7	Y7	Z7	X8	Y8	Z8	X9	Y9	Z9	X10	Y10	Z10	X11	Y11	Z11	X12	Y12	Z12	X13	Y13	Z13	X14	Y14	Z14	X15	Y15	Z15	X16	Y16	Z16	X17	Y17	Z17	X18	Y18	Z18	X19	Y19	Z19	X20	Y20	Z20	X21	Y21	Z21	X22	Y22	Z22	X23	Y23	Z23	X24	Y24	Z24	X25	Y25	Z25	X26	Y26	Z26	X27	Y27	Z27	X28	Y28	Z28	X29	Y29	Z29	X30	Y30	Z30	X31	Y31	Z31	X32	Y32	Z32	X33	Y33	Z33	X34	Y34	Z34	X35	Y35	Z35	X36	Y36	Z36	X37	Y37	Z37	X38	Y38	Z38	X39	Y39	Z39	X40	Y40	Z40	X41	Y41	Z41	X42	Y42	Z42	X43	Y43	Z43	

175	1.740	-1073.40002	-57.39368	1663.57544	-960.82690	-45.25930	1676.11682	-1063.29688	-164.16917	1599.89099	-943.43793	-154.12196	1611.17957	-1011.21527	-179.27075	1420.54407	-999.32898	-215.39500	1129.18970	-1009.19763	-35.17354	1352.85291	-1007.58038	6.13122	1196.46240	-925.89807	-234.38129	1230.36804	-1170.90735	-96.98272	1378.15527	-1248.09497	-138.88020	1192.81665	-1242.68909	-161.59467	1044.48376	-1264.85132	-134.51801	933.35803	-1241.75867	-70.00986	810.06476	-1269.10303	-123.55929	811.38013	-1275.03381	-83.82459	735.77161	-858.53339	-96.18909	1384.53748	-746.64972	-131.24324	1184.65894	-736.73071	-113.06837	1060.28723	-709.47211	-55.46262	952.98114	-739.44873	48.04076	859.15314	-695.08197	11.01550	850.67365	-701.85992	66.60870	784.13531	-1093.98047	-35.43771	922.56885	-875.75671	-57.82710	919.71173	-1063.63013	-226.09976	933.31110	-920.44446	-240.33109	941.04260	-1161.59241	8.29573	604.94385	-1143.41443	33.44904	475.45255	-1156.45728	34.90661	287.97797	-1110.00928	81.87364	71.78385	-1055.08850	47.56814	34.74498	-1114.62976	230.79526	67.12212	-837.41211	-168.76628	594.17139	-865.34045	-191.50940	435.09308	-866.35266	-287.59235	286.14960	-925.34906	-362.50525	93.53095	-979.56470	-415.54791	66.91691	-922.32178	-231.86819	33.08267	-984.30542	-62.68740	1706.20276	-3102.06104	1973.07007	1023.43268	-3140.73120	2012.42468	1021.91125			 
176	1.750	-1075.32202	-50.32155	1663.32239	-962.80872	-38.40143	1675.98914	-1065.51953	-157.18040	1599.53589	-945.49622	-147.26007	1610.81824	-1013.01917	-172.28418	1420.24316	-1001.16046	-207.77892	1128.57690	-1010.84479	-28.02851	1352.55237	-1009.10071	13.64673	1196.36426	-927.94684	-227.13127	1229.82397	-1172.69324	-89.77498	1377.61108	-1249.75427	-131.13087	1192.10669	-1244.28320	-153.57951	1043.58496	-1266.26514	-126.22463	932.55139	-1242.92676	-61.49762	809.52496	-1270.42053	-115.05219	810.66754	-1276.21863	-75.20693	735.15784	-860.23792	-89.20937	1384.13062	-748.43726	-124.47523	1184.36902	-738.38116	-106.67739	1059.86755	-710.94122	-49.71478	952.24371	-740.32935	53.62851	858.00494	-696.09656	16.51537	849.62891	-702.73639	71.65727	782.99146	-1095.13525	-27.38281	922.02136	-876.91510	-50.00872	919.39288	-1065.88086	-218.05971	932.95184	-922.35657	-232.44066	940.80798	-1161.65198	16.10288	604.34979	-1143.44116	40.78729	474.96899	-1155.46899	40.39396	287.29697	-1109.66626	84.74009	71.96809	-1054.91174	49.16500	35.59973	-1114.02747	233.32945	63.09990	-838.38660	-162.27251	594.13147	-865.86273	-185.78877	434.90759	-866.61682	-283.90228	287.35904	-924.72546	-361.36957	95.60902	-978.75745	-414.52106	69.12759	-922.16058	-231.72656	33.08141	-986.27032	-55.92996	1705.96399	-3101.88696	1973.13843	1023.54688	-3140.67456	2012.41907	1022.04303			 
177	1.760	-1077.33069	-43.22014	1663.42700	-964.85193	-31.40892	1676.14063	-1067.58606	-149.91457	1599.38721	-947.66931	-140.27255	1610.83862	-1015.05066	-165.07967	1420.18726	-1002.85248	-200.09171	1128.39624	-1012.55072	-20.81443	1352.54346	-1010.65057	21.16121	1196.54407	-930.17596	-219.81667	1229.48682	-1174.56921	-82.49524	1377.25769	-1251.47681	-123.30767	1191.51526	-1245.92700	-145.35046	1042.96631	-1267.83423	-117.75887	931.92755	-1244.12463	-52.88964	809.04895	-1271.77173	-106.40981	810.01489	-1277.23376	-66.27686	734.60553	-862.05829	-82.41558	1383.76160	-750.24286	-117.76566	1184.21045	-740.21570	-100.31856	1059.60095	-712.39484	-43.98815	951.64441	-741.43292	59.05864	857.03522	-697.28473	21.76191	848.86133	-703.67206	76.54291	781.97070	-1096.37927	-19.32940	921.65973	-878.21600	-42.10363	918.97534	-1067.96729	-209.92491	933.07605	-924.28857	-224.81952	940.71313	-1162.04138	23.41750	604.45074	-1143.73853	48.12199	475.36880	-1154.75488	46.62320	287.41602	-1109.88489	87.85019	71.89178	-1055.41492	50.80743	36.53229	-1113.85742	235.94952	59.91535	-839.52222	-155.49731	593.91785	-866.42078	-179.60257	434.91986	-866.88568	-279.79407	288.78671	-924.24506	-360.18765	97.62759	-978.09192	-413.80621	72.64620	-922.03827	-231.51721	33.07958	-988.47174	-49.02246	1706.13599	-3102.01392	1973.07166	1023.95709	-3140.67651	2012.54004	1022.10217			 
178	1.770	-1079.42395	-36.02077	1663.66174	-966.84076	-24.33729	1676.56592	-1069.73340	-142.61206	1599.55627	-949.88904	-133.22772	1611.09949	-1017.01154	-157.74359	1420.36890	-1004.48633	-192.46231	1128.47754	-1014.26160	-13.63146	1352.83289	-1012.30804	28.79123	1196.96924	-932.44232	-212.61732	1229.27173	-1176.44165	-75.16408	1377.06934	-1253.31152	-115.28730	1191.17078	-1247.68188	-136.95769	1042.51318	-1269.40857	-109.12648	931.44678	-1245.33093	-44.17247	808.74835	-1273.29138	-97.52112	809.59576	-1278.48376	-57.26766	734.32458	-863.81995	-75.49351	1383.87549	-752.15839	-110.88582	1184.27747	-742.01093	-93.91154	1059.60767	-713.96521	-38.27737	951.32275	-742.51495	64.30757	856.11200	-698.47711	26.85215	848.22632	-704.52112	81.35628	781.20001	-1097.58118	-11.13900	921.55231	-879.54669	-34.17912	918.76990	-1069.82495	-201.70131	933.63593	-925.96667	-216.95634	940.73682	-1162.85474	30.88991	605.01257	-1144.04553	55.66919	476.46210	-1155.13672	53.39324	288.08176	-1110.30542	90.25460	71.56596	-1056.00452	52.19617	37.29112	-1114.10754	237.93765	56.09264	-840.59515	-148.50009	593.99634	-866.98651	-172.98599	434.91574	-867.28833	-275.43497	290.42194	-923.78546	-358.79083	100.29875	-977.76953	-412.89960	76.14253	-922.04437	-231.25092	32.99055	-990.65582	-42.10083	1706.36987	-3101.89819	1973.15674	1023.42450	-3140.60791	2012.48816	1021.96332			 
179	1.780	-1081.56738	-28.77539	1664.01648	-969.04474	-17.34318	1676.90723	-1072.01782	-135.35573	1599.88342	-952.09021	-126.15069	1611.57849	-1018.92944	-150.33586	1420.66602	-1006.10614	-184.80743	1128.71960	-1016.03467	-6.41766	1353.29846	-1013.98480	36.47208	1197.55261	-934.63239	-205.28419	1229.32324	-1178.30469	-67.87574	1377.12036	-1255.08276	-107.21571	1191.04895	-1249.47925	-128.45473	1042.23621	-1271.02539	-100.34297	931.25543	-1246.85730	-34.93795	809.06274	-1274.88037	-88.44284	809.49432	-1279.86792	-48.08731	734.28809	-865.59155	-68.41454	1384.20410	-754.16400	-104.01471	1184.55542	-743.96698	-87.56397	1059.88464	-715.58063	-32.63760	951.27643	-743.72491	69.31667	855.50684	-699.76697	31.60741	847.90875	-705.53632	85.70570	780.49640	-1098.88831	-2.94948	921.84686	-881.02063	-26.08743	918.72571	-1071.39136	-193.53360	934.52673	-927.36963	-208.78683	940.98163	-1163.39502	38.06977	605.81177	-1144.50061	63.42617	477.66275	-1156.57556	60.55548	288.87982	-1111.00171	92.03265	71.37498	-1056.41833	53.27783	38.24273	-1114.19385	239.30132	51.87526	-841.71417	-140.77206	594.15277	-867.40601	-165.84796	435.10300	-867.60217	-270.60641	292.14389	-923.46515	-356.86844	103.12660	-977.49713	-411.27005	79.92017	-921.85962	-230.92027	33.01957	-992.74567	-34.89805	1706.76965	-3101.89160	1973.13452	1023.56396	-3140.64136	2012.40576	1021.87396			 
180	1.790	-1083.65796	-21.46355	1664.42261	-971.17139	-10.21589	1677.43860	-1074.29541	-128.13881	1600.39307	-954.38623	-119.09881	1612.11060	-1020.83185	-143.10574	1421.00024	-1007.68970	-177.14328	1129.07239	-1017.84424	0.87643	1353.87866	-1015.74152	44.17109	1198.28601	-936.73755	-197.84047	1229.46313	-1180.13745	-60.60962	1377.36487	-1256.91284	-99.11070	1191.18958	-1251.22070	-119.90340	1042.34375	-1272.74756	-91.40707	931.38263	-1248.26819	-25.87071	809.38257	-1276.47827	-79.29124	809.58258	-1281.33423	-38.75422	734.50842	-867.34961	-61.28820	1384.92749	-756.21008	-97.13553	1185.09375	-745.96985	-81.20319	1060.42053	-717.32556	-27.16877	951.52338	-744.89410	74.17464	854.91718	-701.14453	36.35652	847.70709	-706.42908	90.19070	780.02039	-1100.31628	5.27638	922.45398	-882.60004	-17.98406	918.83203	-1072.69275	-185.50386	935.49548	-928.67480	-200.69905	941.41376	-1164.26379	45.94403	607.03613	-1145.11975	71.28818	478.56851	-1158.37988	67.08201	289.30859	-1111.45154	93.47353	71.01771	-1057.17407	54.08011	38.79136	-1114.50024	240.41226	48.68634	-842.65802	-132.82390	594.45465	-867.56445	-158.25180	435.39047	-868.08008	-265.62881	294.45901	-923.19476	-354.98679	106.37836	-977.22083	-409.30606	84.02525	-921.67169	-230.58139	33.06892	-994.82471	-27.66041	1707.55017	-3101.97437	1973.17542	1023.40369	-3140.75562	2012.39722	1021.92493			 
181	1.800	-1085.83911	-14.16891	1664.88965	-973.20459	-3.17129	1678.11621	-1076.56604	-120.85885	1600.89441	-956.62439	-112.05030	1612.77673	-1022.76172	-135.99525	1421.38171	-1009.28577	-169.38419	1129.43823	-1019.68073	8.14735	1354.60168	-1017.40686	51.87583	1199.10486	-938.68524	-190.47569	1229.82556	-1182.01758	-53.40466	1377.79956	-1258.73706	-91.08984	1191.49023	-1253.11560	-111.32982	1042.57776	-1274.43542	-82.36483	931.77704	-1249.49060	-17.09387	809.48663	-1278.20056	-69.99344	809.97174	-1283.18213	-29.34202	735.10254	-869.23291	-54.13726	1385.56055	-758.29004	-90.43049	1185.74426	-747.95245	-75.00821	1061.15796	-719.05670	-21.56879	952.22168	-746.28998	78.82838	854.88129	-702.48352	40.83102	847.63519	-707.55688	94.10758	779.62622	-1101.77527	13.36708	923.30505	-884.21478	-9.82234	919.20496	-1073.84070	-177.54279	936.54370	-929.84369	-192.24196	941.97290	-1165.19629	54.34075	608.14905	-1145.95264	78.87827	478.84384	-1160.28918	72.62052	289.21628	-1111.79211	94.95966	70.93571	-1057.44409	55.01921	39.22219	-1114.93018	241.59059	46.50475	-843.56586	-124.66957	594.83405	-867.34607	-150.00716	435.60260	-868.41840	-260.40100	296.87219	-922.77509	-352.63406	110.02917	-977.18268	-406.97855	88.54593	-921.49048	-230.08911	33.13705	-997.06494	-20.55044	1707.91138	-3101.94702	1973.11011	1023.41827	-3140.75708	2012.43018	1021.95380			 
182	1.810	-1087.90869	-6.83993	1665.52173	-975.28015	3.95564	1678.77271	-1078.77844	-113.58051	1601.55286	-958.89478	-105.05309	1613.54895	-1024.76245	-129.04393	1421.71411	-1011.01105	-161.53362	1129.76978	-1021.58960	15.43670	1355.36401	-1019.20984	59.55513	1200.02673	-940.61005	-182.82391	1230.16321	-1183.90466	-46.19449	1378.42761	-1260.58716	-83.05190	1191.93005	-1255.05457	-102.71368	1042.96582	-1276.20789	-73.33265	932.32910	-1251.07263	-7.79925	810.19897	-1279.95728	-60.56410	810.60156	-1284.78906	-19.67481	735.78802	-871.22528	-47.07971	1386.18018	-760.35529	-83.75417	1186.60254	-749.89484	-68.84079	1062.08203	-720.80054	-16.28528	952.86353	-747.45618	83.45052	854.48102	-703.75684	45.37685	847.91107	-708.70789	97.94618	779.32037	-1103.51965	21.41885	924.27783	-885.97650	-1.70821	919.59650	-1075.02087	-169.63972	937.49963	-930.98798	-183.95218	942.83215	-1166.41711	62.98210	609.02161	-1146.85095	86.12629	478.65115	-1161.79468	77.38142	288.83176	-1111.94043	96.31657	70.80873	-1057.73914	55.79350	39.58368	-1115.17444	242.77332	44.83823	-844.45782	-115.94987	595.19739	-867.22522	-141.15529	435.95569	-868.94672	-254.78902	299.45798	-922.43933	-349.97263	113.78305	-977.09418	-404.18726	93.70473	-921.22473	-229.56644	33.24540	-999.37573	-13.37210	1708.61426	-3101.96167	1973.12842	1023.51141	-3140.68921	2012.48035	1022.06482			 
